<svg xmlns="http://www.w3.org/2000/svg" xmlns:xlink="http://www.w3.org/1999/xlink" version="1.0" x="0" y="0" width="2400" height="1422.913542968189" viewBox="82.03520217895507 72.84737411499023 175.92959564208985 104.30525177001954" preserveAspectRatio="xMidYMid meet" color-interpolation-filters="sRGB"><g><defs><linearGradient id="92" x1="0%" y1="0%" x2="100%" y2="0%"><stop offset="0%" stop-color="#fa71cd"></stop> <stop offset="100%" stop-color="#9b59b6"></stop></linearGradient><linearGradient id="93" x1="0%" y1="0%" x2="100%" y2="0%"><stop offset="0%" stop-color="#f9d423"></stop> <stop offset="100%" stop-color="#f83600"></stop></linearGradient><linearGradient id="94" x1="0%" y1="0%" x2="100%" y2="0%"><stop offset="0%" stop-color="#0064d2"></stop> <stop offset="100%" stop-color="#1cb0f6"></stop></linearGradient><linearGradient id="95" x1="0%" y1="0%" x2="100%" y2="0%"><stop offset="0%" stop-color="#f00978"></stop> <stop offset="100%" stop-color="#3f51b1"></stop></linearGradient><linearGradient id="96" x1="0%" y1="0%" x2="100%" y2="0%"><stop offset="0%" stop-color="#7873f5"></stop> <stop offset="100%" stop-color="#ec77ab"></stop></linearGradient><linearGradient id="97" x1="0%" y1="0%" x2="100%" y2="0%"><stop offset="0%" stop-color="#f9d423"></stop> <stop offset="100%" stop-color="#e14fad"></stop></linearGradient><linearGradient id="98" x1="0%" y1="0%" x2="100%" y2="0%"><stop offset="0%" stop-color="#009efd"></stop> <stop offset="100%" stop-color="#2af598"></stop></linearGradient><linearGradient id="99" x1="0%" y1="0%" x2="100%" y2="0%"><stop offset="0%" stop-color="#ffcc00"></stop> <stop offset="100%" stop-color="#00b140"></stop></linearGradient><linearGradient id="100" x1="0%" y1="0%" x2="100%" y2="0%"><stop offset="0%" stop-color="#d51007"></stop> <stop offset="100%" stop-color="#ff8177"></stop></linearGradient><linearGradient id="102" x1="0%" y1="0%" x2="100%" y2="0%"><stop offset="0%" stop-color="#a2b6df"></stop> <stop offset="100%" stop-color="#0c3483"></stop></linearGradient><linearGradient id="103" x1="0%" y1="0%" x2="100%" y2="0%"><stop offset="0%" stop-color="#7ac5d8"></stop> <stop offset="100%" stop-color="#eea2a2"></stop></linearGradient><linearGradient id="104" x1="0%" y1="0%" x2="100%" y2="0%"><stop offset="0%" stop-color="#00ecbc"></stop> <stop offset="100%" stop-color="#007adf"></stop></linearGradient><linearGradient id="105" x1="0%" y1="0%" x2="100%" y2="0%"><stop offset="0%" stop-color="#b88746"></stop> <stop offset="100%" stop-color="#fdf5a6"></stop></linearGradient></defs><g fill="#333" class="icon-text-wrapper icon-svg-group iconsvg" transform="translate(83.76000207662582,74.57217407537628)"><g class="iconsvg-imagesvg" transform="translate(56.23999786376953,0)"><g><rect fill="#333" fill-opacity="0" stroke-width="2" x="0" y="0" width="60" height="60.04563468235859" class="image-rect"></rect> <svg x="0" y="0" width="60" height="60.04563468235859" filtersec="colorsb4412235098" class="image-svg-svg primary" style="overflow: visible;"><svg xmlns="http://www.w3.org/2000/svg" viewBox="0.0186874121427536 0.03168483451008797 71.8552474975586 71.91011047363281"><path d="M71.85 12.61c0 2.6.05 5.21 0 7.81-.09 3.42-2.1 4.7-5.32 4.78-5.32.13-7.43-.78-7.59-4.23-.26-5.67-.21-11.36 0-17 .1-2.56 1.76-4 4.53-3.93h3.55c3.35-.15 4.72 1.74 4.82 4.79.07 2.57.01 5.17.01 7.78zM71.86 41.53v4.27c0 5.63-1.08 6.68-6.6 6.67-5.29 0-6.45-1.15-6.47-6.47 0-3.43-.07-6.87 0-10.31.11-3.79 1.49-5.11 5.18-5.19 7.16-.16 7.86.53 7.87 7.83z" fill="#4c88ef"></path><path d="M13 60.69c0 1.18-.07 2.37 0 3.55.63 8.1-2.69 7.89-9.93 7.18-2.2-.21-3-2.2-3-4.24C0 62.93 0 58.67.08 54.43c.09-3.1 1.76-4.77 5-4.63h2.84c3.73.09 5 1.36 5.06 5.21.02 1.9.02 3.79.02 5.68z" fill="#e54c41"></path><path d="M19.6 44v-2.48c0-5.88 1-6.86 6.81-6.82 5.08 0 6.2 1.15 6.25 6.34v7.82c-.05 3.15-1.55 4.87-4.83 4.79h-3.2c-3.61-.14-4.85-1.37-5-5-.08-1.65-.03-3.15-.03-4.65z" fill="#f9be15"></path><path d="M52.14 62.47v2.84c0 5.46-.93 6.36-6.42 6.36s-6.35-.89-6.37-6.42c0-2.6-.05-5.21 0-7.81.08-2.83 1.5-4.4 4.44-4.37h3.2c3.88.08 5 1.2 5.11 5.13.07 1.42.04 2.8.04 4.27z" fill="#3fa95b"></path><path d="M71.85 64.66c0 6.14-.82 7-6.52 7s-6.55-1-6.54-7c0-5.86 1.05-6.93 6.73-6.92 5.33 0 6.33 1.09 6.33 6.92z" fill="#4c88ef"></path><path d="M26.23 58.71c5.35 0 6.42 1.08 6.42 6.47S31.34 72 26 71.94s-6.43-1.27-6.43-6.56c.02-5.52 1.18-6.68 6.66-6.67z" fill="#f8be18"></path><path d="M52.15 40.81c0 6.16-5.37 9.21-10.68 6.32a4 4 0 0 1-2-3.14c-.13-.93 0-1.89-.1-2.83-.56-8.43 2.93-8 9.85-7.16 3.67.47 2.78 4.29 2.93 6.81zM45.91 15.56c5.37 0 6.27.94 6.25 6.52 0 5.21-1 6.24-6.22 6.24-5.7 0-6.61-.9-6.59-6.56.01-5.34.93-6.2 6.56-6.2z" fill="#3fa95b"></path></svg></svg> </g></g> <g transform="translate(0,67.04563522338867)"><g fill-rule="" class="tp-name iconsvg-namesvg" transform="translate(0,0)"><g transform="scale(1)"><g><path d="M13.27-10.32C13.15-7.75 12.49-2.46 12.49-1.57 12.49-0.64 13.06 0 14.51 0L15.57 0C15.81 0 15.86-0.08 15.88-0.29 15.94-0.83 16.64-10.13 16.64-11.91 16.64-13.09 16.33-13.75 14.68-13.75L11.66-13.75C11.33-13.75 11.24-13.58 11.18-13.42 9.53-7.05 10.32-10.19 8.62-3.76 7.28-10.96 7.86-13.75 4.82-13.75L2.11-13.75C1.98-13.75 1.78-13.68 1.78-13.46 1.76-12.03 1.76-12.32 1.38-7.3 1.18-4.82 0.99-2.36 0.99-1.72 0.99-0.6 1.55 0 3 0L4.07 0C4.3 0 4.38-0.12 4.38-0.89 4.38-2.96 4.59-9.26 4.59-10.32 5.27-7.69 5.87-3.6 6.64-0.99 6.93-0.19 7.94 0 8.83 0 9.53 0 9.82-0.12 9.92-0.33 10.94-2.89 12.63-8.47 13.27-10.32ZM21.08 0C21.4 0 21.48-0.08 21.5-0.39 21.95-5.95 22.12-8.14 22.12-8.89 22.12-10 21.73-10.65 20.15-10.65L19.39-10.65C19.22-10.65 19.14-10.65 19.08-10.6 19.02-10.54 19-10.4 18.98-10.09 18.58-4.4 18.4-2.63 18.4-1.84 18.4-0.66 18.79 0 20.38 0ZM19-12.94C19-12.11 19.55-11.7 20.57-11.7 21.93-11.7 22.66-12.42 22.66-13.37 22.66-14.12 22.18-14.61 21.08-14.61 19.82-14.61 19-13.97 19-12.94ZM27.37 0.19C28.79 0.19 29.73-0.48 30.2-1.47 30.2-0.29 31.03 0 32.14 0L32.83 0C33.2 0 33.22-0.08 33.26-0.39 33.38-1.55 34.19-12.63 34.19-12.67 34.19-13.54 33.72-14.33 32.18-14.33L31.42-14.33C31.21-14.33 31.17-14.33 31.11-14.28 31.05-14.22 31.03-14.08 31.01-13.77 30.92-12.15 30.82-11.35 30.72-9.34 30.51-10.44 29.7-10.85 28.42-10.85 24.39-10.85 23.61-6.8 23.61-4.55 23.61-1.22 25.34 0.19 27.37 0.19ZM29.06-8.27C30.35-8.27 30.63-7.05 30.63-5.75 30.63-3.45 29.77-2.38 28.67-2.38 27.41-2.38 27.12-3.76 27.12-5.09 27.12-7.03 27.74-8.27 29.06-8.27ZM39.15 0.19C40.56 0.19 41.51-0.48 41.98-1.47 41.98-0.29 42.81 0 43.91 0L44.61 0C44.98 0 45-0.08 45.04-0.39 45.15-1.55 45.97-12.63 45.97-12.67 45.97-13.54 45.5-14.33 43.95-14.33L43.2-14.33C42.98-14.33 42.95-14.33 42.89-14.28 42.83-14.22 42.81-14.08 42.79-13.77 42.69-12.15 42.6-11.35 42.5-9.34 42.29-10.44 41.47-10.85 40.19-10.85 36.17-10.85 35.39-6.8 35.39-4.55 35.39-1.22 37.11 0.19 39.15 0.19ZM40.83-8.27C42.13-8.27 42.4-7.05 42.4-5.75 42.4-3.45 41.55-2.38 40.45-2.38 39.19-2.38 38.9-3.76 38.9-5.09 38.9-7.03 39.52-8.27 40.83-8.27ZM49.63 0.17C51.43 0.17 51.88-1.03 51.88-2.17 51.88-2.44 50.71-2.11 50.71-3.43 50.71-4.9 51.37-11.14 51.37-12.67 51.37-13.54 50.91-14.33 49.36-14.33L48.6-14.33C48.43-14.33 48.35-14.33 48.29-14.28 48.23-14.22 48.21-14.08 48.2-13.77 47.73-5.5 47.38-3.53 47.38-2.58 47.38-0.62 48.04 0.17 49.63 0.17ZM57.71 0.19C59.43 0.19 61.5-0.41 61.5-1.92 61.5-3.08 60.28-3.29 60.03-3.29 59.49-3.29 59.51-2.23 58.15-2.23 56.83-2.23 56.31-3.22 56.31-4.2 57.57-4.2 62.37-4.4 62.37-7.94 62.37-9.53 61.43-10.85 58.73-10.85 53.74-10.85 52.98-6.3 52.98-4.34 52.98-0.81 55.46 0.19 57.71 0.19ZM58.07-8.27C58.73-8.27 59.06-7.79 59.06-7.26 59.06-6.31 57.96-5.77 56.37-5.75 56.51-6.86 56.93-8.27 58.07-8.27ZM71.75-13.75C71.29-13.75 71.21-13.75 70.99-13.39 70.18-11.93 66.62-3.02 66.62-1.28 66.62-0.35 67.62 0 68.46 0L69.48 0C69.7 0 69.87-0.12 69.93-0.31L70.57-2.98 73.94-2.98C74.15-1.12 74.37 0 76.59 0L77.58 0C77.93 0 78.1-0.1 78.1-0.46 78.1-1.1 77.58-3.25 75.51-11.6 75.24-12.71 74.89-13.75 73.59-13.75ZM72.68-10.91L73.49-5.79 71.27-5.79ZM85.46-2.29C85.46 0.04 84.86 1.36 83.16 1.36 81.2 1.36 81.59 0.1 80.7 0.1 79.96 0.1 79.01 0.54 79.01 1.53 79.01 2.62 80.39 3.78 83.1 3.78 86.72 3.78 87.96 2.07 88.33 0.33 88.89-2.31 89.18-8 89.18-8.66 89.18-10.21 88.6-10.65 87.27-10.65L86.38-10.65C86.22-10.65 86.14-10.62 86.12-10.46 86.1-10.31 86.07-9.22 86.05-9.26 85.77-10.15 85.1-10.85 83.57-10.85 79.87-10.85 78.98-7.44 78.98-4.96 78.98-1.92 80.41-0.58 82.54-0.58 83.92-0.58 84.83-1.14 85.46-2.29ZM83.84-3.16C82.79-3.16 82.38-3.8 82.38-5.08 82.38-5.85 82.54-8.27 84.44-8.27 85.39-8.27 85.87-7.67 85.87-6.12 85.87-5.15 85.68-3.16 83.84-3.16ZM95.36 0.19C97.09 0.19 99.16-0.41 99.16-1.92 99.16-3.08 97.94-3.29 97.69-3.29 97.15-3.29 97.16-2.23 95.81-2.23 94.49-2.23 93.97-3.22 93.97-4.2 95.23-4.2 100.03-4.4 100.03-7.94 100.03-9.53 99.08-10.85 96.39-10.85 91.39-10.85 90.64-6.3 90.64-4.34 90.64-0.81 93.12 0.19 95.36 0.19ZM95.73-8.27C96.39-8.27 96.72-7.79 96.72-7.26 96.72-6.31 95.62-5.77 94.03-5.75 94.16-6.86 94.59-8.27 95.73-8.27ZM110.88-13.95C108.4-13.95 105.63-12.71 105.63-9.36 105.63-4.84 110.65-5.77 110.65-3.82 110.65-3.08 109.93-2.83 109.19-2.83 107.37-2.83 106.56-4.34 105.84-4.34 105.34-4.34 105.17-3.64 105.17-1.94 105.17-1.1 107.12 0.19 109.7 0.19 112.7 0.19 114.17-1.59 114.17-3.87 114.17-8.25 108.77-7.54 108.77-9.65 108.77-10.44 109.54-11 110.36-11 111.54-11 111.6-9.72 111.6-9.2 111.6-8.93 111.67-8.85 112.14-8.85 113.63-8.85 114.46-9.65 114.46-11.08 114.46-12.78 113.28-13.95 110.88-13.95ZM121.03-8.04C122.19-8.04 122.44-8.56 122.5-9.34L122.58-10.38C122.58-10.58 122.46-10.65 122.27-10.65L120.24-10.65C120.27-11.16 120.29-11.55 120.29-11.8 120.29-12.73 119.95-13.5 118.86-13.5L118.3-13.5C117.95-13.5 117.37-11.58 117-10.65 115.8-10.65 115.64-9.96 115.61-9.3L115.55-8.31C115.55-8.14 115.57-8.04 115.76-8.04L116.79-8.04C116.52-4.38 116.34-3.23 116.34-2.44 116.34-0.68 117.21 0.19 119.07 0.19 120.95 0.19 121.65-0.7 121.65-2.11 121.65-2.85 121.46-2.98 121.28-2.98 120.93-2.98 120.72-2.48 120.14-2.48 119.79-2.48 119.64-2.65 119.64-3.31 119.64-4.05 119.83-6.1 120-8.04ZM122.99-2.38C122.99-0.5 124.25 0.19 125.8 0.19 127.4 0.19 128.33-0.6 128.95-1.49 129.15-0.45 129.73 0.19 130.97 0.19 132.75 0.19 133.29-1.18 133.29-2.32 133.29-2.73 132.15-2.31 132.15-3.6 132.15-4.18 132.48-6.86 132.48-7.44 132.48-9.61 131.26-10.85 128.39-10.85 125.43-10.85 123.96-9.53 123.96-7.9 123.96-6.88 124.61-6.41 125.93-6.41 126.32-6.41 126.47-6.45 126.53-6.68 126.76-7.61 126.94-8.25 128.02-8.25 128.99-8.25 129.22-7.73 129.22-6.9 129.22-6.62 129.2-6.45 129.19-6.18 125.14-6.08 122.99-4.69 122.99-2.38ZM129.01-4.59C128.89-3.12 128.04-2.38 127.21-2.38 126.78-2.38 126.32-2.58 126.32-3.18 126.32-4.2 127.65-4.59 129.01-4.59ZM140.73-6.02C142.09-6.02 142.96-7.21 142.96-8.6 142.96-10.15 141.85-10.85 140.85-10.85 140.01-10.85 138.83-10.38 138.23-9.18 138.13-9.98 137.71-10.65 136.24-10.65L135.48-10.65C135.27-10.65 135.09-10.46 135.07-10.09 134.67-4.4 134.49-2.63 134.49-1.84 134.49-0.66 134.88 0 136.47 0L137.17 0C137.38 0 137.59-0.14 137.59-0.39 137.59-0.83 137.84-3.68 137.96-5.33 138.1-7.21 138.6-8.16 139.32-8.16 139.78-8.16 139.9-7.75 139.9-7.19 139.9-6.88 139.86-6.61 139.86-6.28 139.86-6.08 140.44-6.02 140.73-6.02ZM148.94-8.04C150.11-8.04 150.36-8.56 150.42-9.34L150.49-10.38C150.49-10.58 150.38-10.65 150.18-10.65L148.15-10.65C148.19-11.16 148.21-11.55 148.21-11.8 148.21-12.73 147.86-13.5 146.77-13.5L146.21-13.5C145.86-13.5 145.28-11.58 144.91-10.65 143.71-10.65 143.56-9.96 143.52-9.3L143.46-8.31C143.46-8.14 143.48-8.04 143.67-8.04L144.7-8.04C144.43-4.38 144.26-3.23 144.26-2.44 144.26-0.68 145.13 0.19 146.99 0.19 148.87 0.19 149.56-0.7 149.56-2.11 149.56-2.85 149.37-2.98 149.2-2.98 148.85-2.98 148.63-2.48 148.05-2.48 147.7-2.48 147.55-2.65 147.55-3.31 147.55-4.05 147.74-6.1 147.92-8.04ZM155.18-9.01C155.18-10.03 154.79-10.65 153.19-10.65L152.57-10.65C152.2-10.65 152.06-10.52 152.02-10.05 151.93-9.16 151.54-3.87 151.54-2.87 151.54-1.16 152.68 0.19 154.66 0.19 155.68 0.19 156.87-0.23 157.64-1.59 157.7-0.76 158.11 0 159.66 0L160.41 0C160.78 0 160.78-0.02 160.82-0.56 161.22-6.26 161.4-8.02 161.4-8.81 161.4-10 161.01-10.65 159.42-10.65L158.73-10.65C158.44-10.65 158.32-10.48 158.3-10.27 158.07-7.85 158.14-2.4 156.05-2.4 155.26-2.4 154.77-2.94 154.77-3.84 154.77-4.65 155.18-7.94 155.18-9.01ZM169.81-10.85C168.41-10.85 167.5-10.36 166.9-9.18 166.9-9.98 166.28-10.65 164.91-10.65L164.15-10.65C163.98-10.65 163.9-10.65 163.84-10.6 163.78-10.54 163.76-10.4 163.74-10.09 163.63-8.62 162.87 0.95 162.87 1.74 162.87 2.93 163.26 3.58 164.85 3.58L165.54 3.58C165.87 3.58 165.95 3.51 165.97 3.2 166.28-0.39 166.13 1.28 166.38-1.51 166.82-0.45 167.54 0.19 168.9 0.19 171.47 0.19 173.47-2.15 173.47-6.18 173.47-9.39 172.21-10.85 169.81-10.85ZM168.39-8.27C169.71-8.27 169.98-7.05 169.98-5.75 169.98-3.45 169.13-2.38 168.02-2.38 166.77-2.38 166.47-3.76 166.47-5.09 166.47-7.05 167.09-8.27 168.39-8.27Z" transform="translate(-0.9900000095367432, 14.609999656677246)"></path></g> </g></g> <g fill-rule="" class="tp-slogan iconsvg-slogansvg" fill="#333" transform="translate(29.270000457763672,25.39000129699707)"> <g transform="scale(1, 1)"><g transform="scale(1)"><path d="M1.08 0L1.08-7.87L2.08-7.87L2.08 0L1.08 0ZM6.87 0L6.87-7.03L4.49-7.03L4.49-7.87L10.25-7.87L10.25-7.03L7.88-7.03L7.88 0L6.87 0ZM12.78-5.17L12.58-7.18L12.55-8.28L13.60-8.28L13.57-7.18L13.38-5.17L12.78-5.17ZM16.08-1.02L16.68-1.72Q17.10-1.27 17.67-1.00Q18.24-0.73 18.85-0.73L18.85-0.73Q19.63-0.73 20.06-1.09Q20.50-1.44 20.50-2.02L20.50-2.02Q20.50-2.32 20.39-2.53Q20.29-2.74 20.12-2.89Q19.94-3.04 19.70-3.16Q19.46-3.28 19.19-3.41L19.19-3.41L18.06-3.90Q17.78-4.02 17.50-4.19Q17.21-4.36 16.98-4.60Q16.75-4.84 16.61-5.17Q16.46-5.50 16.46-5.93L16.46-5.93Q16.46-6.37 16.65-6.76Q16.84-7.14 17.17-7.42Q17.50-7.70 17.95-7.86Q18.40-8.02 18.94-8.02L18.94-8.02Q19.64-8.02 20.24-7.75Q20.84-7.48 21.26-7.04L21.26-7.04L20.72-6.40Q20.36-6.74 19.93-6.94Q19.49-7.14 18.94-7.14L18.94-7.14Q18.28-7.14 17.87-6.83Q17.47-6.53 17.47-5.99L17.47-5.99Q17.47-5.70 17.59-5.50Q17.70-5.30 17.89-5.15Q18.08-5.00 18.31-4.89Q18.54-4.78 18.78-4.68L18.78-4.68L19.90-4.20Q20.23-4.06 20.53-3.87Q20.83-3.68 21.05-3.44Q21.26-3.19 21.39-2.86Q21.52-2.53 21.52-2.10L21.52-2.10Q21.52-1.63 21.33-1.22Q21.14-0.82 20.80-0.51Q20.45-0.20 19.96-0.03Q19.46 0.14 18.84 0.14L18.84 0.14Q18.01 0.14 17.30-0.17Q16.60-0.48 16.08-1.02L16.08-1.02ZM27.49 0L27.49-7.87L28.52-7.87L31.36-2.93L32.22-1.30L32.26-1.30Q32.23-1.90 32.19-2.54Q32.14-3.18 32.14-3.80L32.14-3.80L32.14-7.87L33.09-7.87L33.09 0L32.06 0L29.20-4.96L28.35-6.58L28.30-6.58Q28.35-5.98 28.39-5.36Q28.44-4.74 28.44-4.12L28.44-4.12L28.44 0L27.49 0ZM36.25 0L36.25-7.87L40.79-7.87L40.79-7.03L37.25-7.03L37.25-4.56L40.24-4.56L40.24-3.71L37.25-3.71L37.25-0.85L40.91-0.85L40.91 0L36.25 0ZM45.02 0L42.50-7.87L43.56-7.87L44.82-3.62Q45.04-2.92 45.20-2.32Q45.36-1.72 45.59-1.02L45.59-1.02L45.64-1.02Q45.86-1.72 46.02-2.32Q46.19-2.92 46.40-3.62L46.40-3.62L47.66-7.87L48.68-7.87L46.18 0L45.02 0ZM50.76 0L50.76-7.87L55.29-7.87L55.29-7.03L51.75-7.03L51.75-4.56L54.74-4.56L54.74-3.71L51.75-3.71L51.75-0.85L55.41-0.85L55.41 0L50.76 0ZM59.08-7.07L59.08-4.14L60.40-4.14Q61.32-4.14 61.81-4.52Q62.30-4.90 62.30-5.66L62.30-5.66Q62.30-6.44 61.81-6.76Q61.32-7.07 60.40-7.07L60.40-7.07L59.08-7.07ZM63.53 0L62.40 0L60.50-3.32L59.08-3.32L59.08 0L58.08 0L58.08-7.87L60.54-7.87Q61.14-7.87 61.65-7.76Q62.16-7.64 62.53-7.38Q62.89-7.12 63.10-6.70Q63.30-6.28 63.30-5.66L63.30-5.66Q63.30-4.74 62.82-4.19Q62.34-3.64 61.54-3.43L61.54-3.43L63.53 0ZM71.11 0L71.11-7.03L68.73-7.03L68.73-7.87L74.49-7.87L74.49-7.03L72.12-7.03L72.12 0L71.11 0ZM79.52 0.14L79.52 0.14Q78.78 0.14 78.16-0.14Q77.54-0.43 77.10-0.97Q76.66-1.50 76.41-2.26Q76.16-3.02 76.16-3.97L76.16-3.97Q76.16-4.92 76.41-5.67Q76.66-6.42 77.10-6.94Q77.54-7.46 78.16-7.74Q78.78-8.02 79.52-8.02L79.52-8.02Q80.27-8.02 80.89-7.73Q81.50-7.45 81.95-6.93Q82.40-6.41 82.65-5.66Q82.90-4.91 82.90-3.97L82.90-3.97Q82.90-3.02 82.65-2.26Q82.40-1.50 81.95-0.97Q81.50-0.43 80.89-0.14Q80.27 0.14 79.52 0.14ZM79.52-0.73L79.52-0.73Q80.05-0.73 80.48-0.96Q80.90-1.19 81.21-1.61Q81.52-2.04 81.68-2.63Q81.85-3.23 81.85-3.97L81.85-3.97Q81.85-4.70 81.68-5.29Q81.52-5.88 81.21-6.29Q80.90-6.70 80.48-6.92Q80.05-7.14 79.52-7.14L79.52-7.14Q79.00-7.14 78.57-6.92Q78.14-6.70 77.84-6.29Q77.53-5.88 77.36-5.29Q77.20-4.70 77.20-3.97L77.20-3.97Q77.20-3.23 77.36-2.63Q77.53-2.04 77.84-1.61Q78.14-1.19 78.57-0.96Q79.00-0.73 79.52-0.73ZM89.01 0L89.01-7.87L90.01-7.87L90.01-0.85L93.45-0.85L93.45 0L89.01 0ZM96.86-3.20L99.23-3.20L98.86-4.40Q98.64-5.06 98.45-5.72Q98.26-6.37 98.06-7.06L98.06-7.06L98.02-7.06Q97.84-6.37 97.64-5.72Q97.45-5.06 97.24-4.40L97.24-4.40L96.86-3.20ZM100.22 0L99.48-2.40L96.61-2.40L95.86 0L94.84 0L97.50-7.87L98.63-7.87L101.29 0L100.22 0ZM104.56 0L104.56-7.03L102.18-7.03L102.18-7.87L107.94-7.87L107.94-7.03L105.57-7.03L105.57 0L104.56 0ZM110.36 0L110.36-7.87L114.90-7.87L114.90-7.03L111.36-7.03L111.36-4.56L114.34-4.56L114.34-3.71L111.36-3.71L111.36-0.85L115.02-0.85L115.02 0L110.36 0Z" transform="translate(-1.08, 8.28)"></path></g></g></g></g></g><defs v-gra="od"></defs></g></svg>